PathFileType	4	(X/Y/Z)	s06c0203.trc
DataRate	CameraRate	NumFrames	NumMarkers	Units	OrigDataRate	OrigDataStartFrame	OrigNumFrames
200	200	6	48	mm	200	1500	2000
Frame#	Time	racr			lacr			c7			jug			rlel			rdr			llel			ldr			s2			lic			ric			lasi			rasi			rpsi			lpsi			rgt			lgt			rth1			rth2			rth3			rth4			rlfc			rmfc			rsh1			rsh2			rsh3			rsh4			rlmal			rcal			rtoe			rmt5			lth1			lth2			lth4			lth3			llfc			lmfc			llmal			lcal			lmt5			lsh1			lsh2			lsh3			lsh4			ltoe			SBIKE			LBIKE			RBIKE			
		X1	Y1	Z1	X2	Y2	Z2	X3	Y3	Z3	X4	Y4	Z4	X5	Y5	Z5	X6	Y6	Z6	X7	Y7	Z7	X8	Y8	Z8	X9	Y9	Z9	X10	Y10	Z10	X11	Y11	Z11	X12	Y12	Z12	X13	Y13	Z13	X14	Y14	Z14	X15	Y15	Z15	X16	Y16	Z16	X17	Y17	Z17	X18	Y18	Z18	X19	Y19	Z19	X20	Y20	Z20	X21	Y21	Z21	X22	Y22	Z22	X23	Y23	Z23	X24	Y24	Z24	X25	Y25	Z25	X26	Y26	Z26	X27	Y27	Z27	X28	Y28	Z28	X29	Y29	Z29	X30	Y30	Z30	X31	Y31	Z31	X32	Y32	Z32	X33	Y33	Z33	X34	Y34	Z34	X35	Y35	Z35	X36	Y36	Z36	X37	Y37	Z37	X38	Y38	Z38	X39	Y39	Z39	X40	Y40	Z40	X41	Y41	Z41	X42	Y42	Z42	X43	Y43	Z43	X44	Y44	Z44	X45	Y45	Z45	X46	Y46	Z46	X47	Y47	Z47	X48	Y48	Z48	
1500	7.5000	605.986648	1192.098972	-116.351719	597.449352	1182.307062	-430.150500	611.858455	1290.111392	-269.539583	572.345842	1135.519441	-276.790965	502.313920	1015.297862	69.681195	655.453675	916.593920	-48.570842	463.957013	955.806814	-533.562248	651.704315	913.638760	-415.283509	43.638862	1147.307674	-213.697373	180.559948	1104.736846	-399.108241	196.629344	1103.930966	-66.062726	204.700656	1049.867300	-358.475108	217.804329	1067.771734	-106.946133	80.789171	1180.669304	-186.270501	78.500974	1177.236943	-245.305296	167.356873	1041.343493	-18.869057	153.472583	1020.823403	-413.248563	263.623780	962.899674	-26.633706	343.032742	919.590035	-35.352432	388.778744	845.724325	-37.251745	363.459637	944.224328	-55.460232	424.151287	749.410370	-60.901939	400.600843	730.387537	-170.643222	327.706704	672.757669	-33.435716	260.613635	619.231778	-54.642588	176.824931	596.750524	-50.200376	271.011915	605.202250	-89.867782	97.831294	567.665986	-48.205116	31.858432	596.955967	-95.912637	187.227817	367.977402	-98.344372	113.694101	432.850262	-27.210581	190.121901	890.986449	-424.707657	246.646215	825.746558	-413.616257	278.350013	841.898090	-402.359589	262.762270	737.924859	-403.071821	291.430370	619.398799	-381.656896	281.549238	600.129887	-270.331347	208.037563	249.988167	-379.026353	139.105782	203.099552	-332.690605	336.692442	218.733587	-402.302370	274.493626	507.972980	-404.969910	273.669833	424.161873	-384.535208	233.423615	344.815750	-387.236660	294.661824	422.960704	-350.521735	416.631819	248.719912	-342.503195	-203.750355	864.520644	-212.155863	-50.923646	80.047312	-411.441978	-50.897931	79.877835	-14.567742	
1501	7.5050	604.714327	1192.626018	-114.735266	598.268903	1182.401952	-428.270871	612.330024	1290.296185	-267.843778	571.808386	1135.979256	-275.184088	501.793027	1014.697206	69.350769	655.699716	917.023289	-49.085461	465.565299	957.158570	-533.890663	652.148315	913.659498	-414.911199	44.503931	1147.528327	-217.073140	181.939954	1104.241128	-399.335311	195.562710	1106.808509	-67.192594	206.352833	1049.567137	-359.057166	217.067655	1069.827047	-107.248685	80.983837	1181.154182	-189.360732	79.115235	1177.401079	-248.313507	167.430352	1046.115840	-19.869228	153.962014	1017.682985	-414.114121	264.856381	968.335071	-26.642892	345.134199	927.229388	-35.148625	392.461091	854.370297	-36.259584	364.649046	952.559243	-54.863131	430.691851	758.523249	-61.019690	407.961965	739.529101	-171.470779	334.541791	681.643015	-33.787349	267.497830	627.886273	-54.907110	183.767111	605.362769	-50.422027	278.684734	613.119527	-90.326038	104.729583	575.955374	-48.532481	38.280008	604.942157	-96.123444	194.920398	376.663518	-98.519675	121.209949	441.151526	-27.467776	187.762625	887.415824	-425.449731	242.018518	820.257385	-414.405764	274.225414	835.319808	-402.844769	255.121052	731.872209	-404.038820	280.967926	613.074332	-382.550711	269.149294	593.575579	-270.906548	200.533613	242.956786	-378.971781	131.715690	196.648608	-332.453086	329.395314	210.910474	-402.166976	264.598490	501.711587	-405.721702	264.408909	417.866676	-385.061187	224.763576	338.322279	-387.727862	285.456985	416.945225	-351.155982	409.579015	240.298067	-342.443055	-203.742651	864.580587	-212.199617	-50.934422	80.075642	-411.438562	-50.974498	80.432328	-14.114289	
1502	7.5100	603.394450	1193.384711	-113.097985	599.115948	1182.431936	-426.400235	612.730066	1290.302288	-266.399297	571.247982	1136.235262	-273.420283	501.015846	1014.056087	68.684888	655.873364	917.547597	-49.539986	467.027128	958.066577	-533.911048	652.748388	913.707667	-414.814892	45.980037	1147.515464	-220.701936	183.235011	1103.364539	-399.348244	194.458200	1109.518577	-68.473964	208.451908	1049.451050	-360.184695	216.125148	1071.621325	-107.670241	81.080513	1181.489596	-192.405518	79.674557	1177.415007	-251.530812	167.089646	1050.774751	-20.974259	154.418484	1014.420107	-414.899650	265.723719	973.925056	-25.931268	347.123344	934.440943	-35.198585	396.815189	863.141721	-36.392522	365.598494	960.888608	-54.582430	437.195162	767.864845	-61.287684	415.164241	748.621860	-172.169254	341.371448	690.470588	-34.148727	274.515879	636.388325	-55.143960	190.905870	613.688495	-50.677358	285.876790	621.538127	-90.494922	111.910094	583.769270	-48.818407	45.227839	612.290434	-96.407470	203.015643	384.824089	-98.850453	129.408256	448.995851	-27.623524	185.378091	883.781825	-426.339505	237.328476	814.831704	-415.472429	269.929456	828.736436	-403.598427	247.367426	726.032073	-405.051192	270.631386	607.450743	-383.779117	257.023413	587.905305	-271.760353	192.657614	236.729202	-378.863987	124.130313	191.137050	-332.243147	321.975943	203.374132	-401.997038	254.643014	496.301598	-406.619895	254.948109	412.399583	-385.839531	215.701031	332.758958	-388.253433	276.188694	411.785200	-352.086343	402.485773	231.971632	-342.275466	-203.750226	864.638696	-212.256233	-50.948561	80.078358	-411.453587	-50.951913	80.416058	-14.152752	
1503	7.5150	602.172281	1194.146216	-111.206801	600.252037	1182.254555	-424.893684	613.021592	1290.231799	-264.935117	571.029718	1136.291214	-271.476981	500.141522	1013.551251	68.214633	655.891133	918.384662	-50.113507	468.474531	958.918205	-533.904261	653.350205	913.874213	-414.924594	47.196231	1147.281951	-224.135108	184.724236	1102.064801	-399.315929	193.261734	1111.993197	-69.803372	209.857290	1048.587754	-359.831484	215.355792	1073.409146	-108.179284	81.316155	1181.894921	-195.846801	80.240887	1177.229833	-254.723272	166.854761	1054.756082	-22.215238	154.896067	1011.129292	-415.582117	266.834569	978.642203	-26.072346	349.001876	941.488416	-35.269573	399.230853	872.888037	-33.961870	366.763671	968.383416	-54.665213	443.621635	777.009735	-61.883976	422.263012	757.603664	-172.936677	348.249932	699.303343	-34.529763	281.813907	644.893987	-55.310171	198.155168	621.656886	-50.917423	293.116856	629.819594	-90.694111	119.112883	591.060779	-49.235967	52.210614	619.124220	-96.789134	212.892873	394.055199	-97.605466	137.713655	456.570505	-27.765282	182.929440	880.165316	-427.612207	232.347079	809.643546	-416.953515	265.565461	822.441794	-404.621147	239.641875	720.460736	-406.405651	260.523186	602.499854	-385.194233	246.130933	582.868011	-272.729877	184.704928	231.357512	-378.759645	116.229861	186.613056	-332.012676	314.209259	196.472214	-401.821396	244.782658	491.716836	-407.593888	245.622858	407.891724	-386.994201	206.499096	328.020395	-388.707183	267.101928	407.617210	-353.729524	395.117762	224.084793	-342.189793	-203.767101	864.648151	-212.275864	-50.954885	80.091240	-411.472225	-50.963326	80.452615	-14.137248	
1504	7.5200	600.930041	1194.822993	-109.278784	601.280724	1181.844985	-422.982748	613.251598	1290.104724	-263.528510	570.760156	1136.289885	-269.562191	499.189816	1013.061929	67.916533	655.979042	919.095581	-50.476605	469.938135	959.574802	-533.982219	653.994053	914.032516	-415.047268	48.091615	1146.863724	-227.431196	186.500708	1100.411252	-399.390422	192.336998	1114.464001	-70.705279	211.212807	1047.310922	-359.638914	215.108536	1075.427315	-108.320727	81.487252	1182.203722	-199.043905	80.588270	1176.973358	-257.701627	166.421478	1058.305063	-23.390442	155.457642	1008.007381	-416.249832	267.689241	983.052398	-26.454782	350.918208	948.351638	-35.364371	402.923196	881.563650	-33.567518	367.694495	975.865129	-55.042900	449.979781	786.348800	-62.744081	428.881979	766.792800	-172.950548	355.094657	708.028759	-34.965579	289.030557	653.088427	-55.660452	205.605137	629.343193	-51.148893	300.602010	637.796020	-90.942709	126.515282	597.834346	-49.583643	59.217859	625.171365	-97.166651	221.463734	401.019526	-98.900858	145.945135	463.355937	-28.275204	180.293427	876.680468	-429.048915	227.262847	804.550236	-418.485522	261.110684	816.240912	-405.946920	231.695064	715.073224	-408.775203	250.785131	598.242092	-386.906045	235.572996	579.220976	-273.579045	176.937175	226.739153	-378.523269	108.029720	183.024239	-331.754039	306.064735	189.985423	-401.741125	235.260005	487.669336	-408.789688	236.429740	403.739656	-388.185270	197.337233	323.847820	-389.235936	258.097008	403.198869	-354.769144	387.428237	216.557259	-342.196824	-203.807511	864.682377	-212.264678	-50.975024	80.077957	-411.481042	-50.983889	80.483355	-14.135453	
1505	7.5250	599.587284	1195.622663	-107.392040	602.127553	1181.271822	-420.959779	613.377255	1289.873623	-262.010200	570.313377	1136.204859	-267.440171	498.084762	1012.414418	67.708583	656.036235	919.750577	-50.891852	471.198830	960.129127	-534.095965	654.530869	914.137222	-415.253142	48.480361	1146.183216	-230.646132	188.578508	1098.400957	-399.673462	191.015395	1116.245698	-72.065322	212.446590	1045.764538	-359.587997	214.132675	1076.654642	-108.989014	81.383537	1182.190245	-201.988742	80.883122	1176.594481	-260.701705	166.069448	1061.331037	-24.673034	155.942974	1004.960081	-416.933857	268.445583	987.501547	-26.835870	352.478385	955.282785	-35.916207	406.418318	890.183544	-33.261322	368.450244	982.783102	-55.967412	456.042553	795.673363	-62.835108	435.543103	775.689898	-173.906865	361.982572	716.615857	-35.548365	297.669734	661.206425	-54.936415	213.090768	636.757789	-51.461069	308.246446	645.209073	-91.123554	133.973295	604.069326	-50.046796	66.253991	630.541967	-97.528053	231.514509	409.109644	-98.216711	154.853667	469.738182	-28.650811	177.447513	873.344946	-430.779699	222.377549	799.860802	-420.282863	256.526347	810.647799	-407.597730	224.110483	710.411091	-410.526243	241.601964	594.763210	-388.667319	226.339445	576.399320	-274.516780	169.372738	223.284495	-378.254738	99.559545	180.430122	-331.494360	297.712776	184.010631	-401.709412	226.072419	484.150906	-410.329087	227.360285	400.355088	-389.542778	188.162205	320.395312	-389.922676	249.466061	399.804973	-356.423415	379.461627	209.471330	-342.257721	-203.767355	864.714273	-212.438360	-50.968556	80.088598	-411.489120	-50.987698	80.492127	-14.150704	
